Jost-ExtraLight.ufo
<glyph name="comma" format="2">
  <advance width="285"/>
  <unicode hex="002C"/>
  <outline>
    <contour>
      <point x="167" y="99" type="line"/>
      <point x="199" y="86" type="line"/>
      <point x="89" y="-164" type="line"/>
      <point x="67" y="-156" type="line"/>
    </contour>
  </outline>
</glyph>
<glyph name="colon" format="2">
  <advance width="300"/>
  <unicode hex="003A"/>
  <outline>
    <contour>
      <point x="112" y="13" type="curve" smooth="yes"/>
      <point x="112" y="27"/>
      <point x="123" y="37"/>
      <point x="136" y="37" type="curve" smooth="yes"/>
      <point x="149" y="37"/>
      <point x="160" y="27"/>
      <point x="160" y="13" type="curve" smooth="yes"/>
      <point x="160" y="-1"/>
      <point x="149" y="-12"/>
      <point x="136" y="-12" type="curve" smooth="yes"/>
      <point x="123" y="-12"/>
      <point x="112" y="-1"/>
    </contour>
    <contour>
      <point x="112" y="370" type="curve" smooth="yes"/>
      <point x="112" y="384"/>
      <point x="123" y="394"/>
      <point x="136" y="394" type="curve" smooth="yes"/>
      <point x="149" y="394"/>
      <point x="160" y="384"/>
      <point x="160" y="370" type="curve" smooth="yes"/>
      <point x="160" y="356"/>
      <point x="149" y="346"/>
      <point x="136" y="346" type="curve" smooth="yes"/>
      <point x="123" y="346"/>
      <point x="112" y="356"/>
    </contour>
  </outline>
</glyph>
<glyph name="greater" format="2">
  <advance width="640"/>
  <unicode hex="003E"/>
  <outline>
    <contour>
      <point x="524" y="256" type="line"/>
      <point x="65" y="448" type="line"/>
      <point x="65" y="479" type="line"/>
      <point x="575" y="267" type="line"/>
      <point x="575" y="249" type="line"/>
      <point x="65" y="36" type="line"/>
      <point x="65" y="67" type="line"/>
    </contour>
  </outline>
</glyph>
<glyph name="D" format="2">
  <advance width="648"/>
  <unicode hex="0044"/>
  <outline>
    <contour>
      <point x="87" y="700" type="line"/>
      <point x="120" y="700" type="line"/>
      <point x="120" y="0" type="line"/>
      <point x="87" y="0" type="line"/>
    </contour>
    <contour>
      <point x="262" y="0" type="curve" smooth="yes"/>
      <point x="105" y="0" type="line"/>
      <point x="105" y="33" type="line"/>
      <point x="262" y="33" type="line" smooth="yes"/>
      <point x="449" y="33"/>
      <point x="568" y="158"/>
      <point x="568" y="350" type="curve" smooth="yes"/>
      <point x="568" y="541"/>
      <point x="449" y="667"/>
      <point x="262" y="667" type="curve" smooth="yes"/>
      <point x="105" y="667" type="line"/>
      <point x="105" y="700" type="line"/>
      <point x="262" y="700" type="line" smooth="yes"/>
      <point x="466" y="700"/>
      <point x="602" y="559"/>
      <point x="602" y="350" type="curve" smooth="yes"/>
      <point x="602" y="141"/>
      <point x="466" y="0"/>
    </contour>
  </outline>
</glyph>
<glyph name="K" format="2">
  <advance width="487"/>
  <unicode hex="004B"/>
  <outline>
    <contour>
      <point x="84" y="700" type="line"/>
      <point x="117" y="700" type="line"/>
      <point x="117" y="0" type="line"/>
      <point x="84" y="0" type="line"/>
    </contour>
    <contour>
      <point x="418" y="700" type="line"/>
      <point x="460" y="700" type="line"/>
      <point x="149" y="372" type="line"/>
      <point x="475" y="0" type="line"/>
      <point x="432" y="0" type="line"/>
      <point x="108" y="371" type="line"/>
    </contour>
  </outline>
</glyph>
<glyph name="W" format="2">
  <advance width="962"/>
  <unicode hex="0057"/>
  <outline>
    <contour>
      <point x="696" y="71" type="line"/>
      <point x="909" y="700" type="line"/>
      <point x="945" y="700" type="line"/>
      <point x="698" y="-21" type="line"/>
      <point x="481" y="627" type="line"/>
      <point x="264" y="-21" type="line"/>
      <point x="17" y="700" type="line"/>
      <point x="53" y="700" type="line"/>
      <point x="266" y="71" type="line"/>
      <point x="481" y="721" type="line"/>
    </contour>
  </outline>
</glyph>
<glyph name="underscore" format="2">
  <advance width="500"/>
  <unicode hex="005F"/>
  <outline>
    <contour>
      <point x="0" y="-116" type="line"/>
      <point x="0" y="-92" type="line"/>
      <point x="500" y="-92" type="line"/>
      <point x="500" y="-116" type="line"/>
    </contour>
  </outline>
</glyph>
<glyph name="b" format="2">
  <advance width="549"/>
  <unicode hex="0062"/>
  <outline>
    <contour>
      <point x="108" y="780" type="line"/>
      <point x="108" y="0" type="line"/>
      <point x="77" y="0" type="line"/>
      <point x="77" y="780" type="line"/>
    </contour>
    <contour>
      <point x="508" y="230" type="curve" smooth="yes"/>
      <point x="508" y="82"/>
      <point x="412" y="-10"/>
      <point x="290" y="-10" type="curve" smooth="yes"/>
      <point x="169" y="-10"/>
      <point x="94" y="102"/>
      <point x="94" y="230" type="curve" smooth="yes"/>
      <point x="94" y="358"/>
      <point x="169" y="470"/>
      <point x="290" y="470" type="curve" smooth="yes"/>
      <point x="412" y="470"/>
      <point x="508" y="378"/>
    </contour>
    <contour>
      <point x="476" y="230" type="curve" smooth="yes"/>
      <point x="476" y="360"/>
      <point x="392" y="440"/>
      <point x="285" y="440" type="curve" smooth="yes"/>
      <point x="188" y="440"/>
      <point x="108" y="343"/>
      <point x="108" y="230" type="curve" smooth="yes"/>
      <point x="108" y="117"/>
      <point x="188" y="20"/>
      <point x="285" y="20" type="curve" smooth="yes"/>
      <point x="392" y="20"/>
      <point x="476" y="100"/>
    </contour>
  </outline>
</glyph>
<glyph name="c" format="2">
  <advance width="485"/>
  <unicode hex="0063"/>
  <outline>
    <contour>
      <point x="68" y="230" type="curve" smooth="yes"/>
      <point x="68" y="107"/>
      <point x="158" y="20"/>
      <point x="272" y="20" type="curve" smooth="yes"/>
      <point x="346" y="20"/>
      <point x="407" y="57"/>
      <point x="428" y="87" type="curve"/>
      <point x="428" y="48" type="line"/>
      <point x="403" y="19"/>
      <point x="342" y="-10"/>
      <point x="272" y="-10" type="curve" smooth="yes"/>
      <point x="139" y="-10"/>
      <point x="37" y="91"/>
      <point x="37" y="230" type="curve" smooth="yes"/>
      <point x="37" y="369"/>
      <point x="139" y="470"/>
      <point x="272" y="470" type="curve" smooth="yes"/>
      <point x="342" y="470"/>
      <point x="403" y="440"/>
      <point x="428" y="412" type="curve"/>
      <point x="428" y="373" type="line"/>
      <point x="407" y="403"/>
      <point x="346" y="440"/>
      <point x="272" y="440" type="curve" smooth="yes"/>
      <point x="158" y="440"/>
      <point x="68" y="353"/>
    </contour>
  </outline>
</glyph>
<glyph name="cent" format="2">
  <advance width="580"/>
  <unicode hex="00A2"/>
  <outline>
    <contour>
      <point x="305" y="9" type="line"/>
      <point x="327" y="9" type="line"/>
      <point x="331" y="-112" type="line"/>
      <point x="302" y="-112" type="line"/>
    </contour>
    <contour>
      <point x="116" y="230" type="curve" smooth="yes"/>
      <point x="116" y="110"/>
      <point x="203" y="20"/>
      <point x="319" y="20" type="curve" smooth="yes"/>
      <point x="393" y="20"/>
      <point x="455" y="56"/>
      <point x="476" y="87" type="curve"/>
      <point x="476" y="48" type="line"/>
      <point x="451" y="19"/>
      <point x="389" y="-10"/>
      <point x="319" y="-10" type="curve" smooth="yes"/>
      <point x="186" y="-10"/>
      <point x="84" y="91"/>
      <point x="84" y="230" type="curve" smooth="yes"/>
      <point x="84" y="369"/>
      <point x="186" y="470"/>
      <point x="319" y="470" type="curve" smooth="yes"/>
      <point x="389" y="470"/>
      <point x="452" y="440"/>
      <point x="476" y="412" type="curve"/>
      <point x="476" y="373" type="line"/>
      <point x="455" y="404"/>
      <point x="393" y="440"/>
      <point x="319" y="440" type="curve" smooth="yes"/>
      <point x="203" y="440"/>
      <point x="116" y="350"/>
    </contour>
    <contour>
      <point x="302" y="578" type="line"/>
      <point x="331" y="578" type="line"/>
      <point x="327" y="452" type="line"/>
      <point x="305" y="452" type="line"/>
    </contour>
  </outline>
</glyph>
<glyph name="section" format="2">
  <advance width="401"/>
  <unicode hex="00A7"/>
  <outline>
    <contour>
      <point x="343" y="605" type="line"/>
      <point x="323" y="651"/>
      <point x="261" y="680"/>
      <point x="205" y="680" type="curve" smooth="yes"/>
      <point x="151" y="680"/>
      <point x="90" y="655"/>
      <point x="90" y="596" type="curve" smooth="yes"/>
      <point x="90" y="537"/>
      <point x="180" y="511"/>
      <point x="231" y="490" type="curve" smooth="yes"/>
      <point x="296" y="463"/>
      <point x="371" y="430"/>
      <point x="371" y="363" type="curve" smooth="yes"/>
      <point x="371" y="278"/>
      <point x="305" y="240"/>
      <point x="206" y="240" type="curve"/>
      <point x="206" y="250" type="line"/>
      <point x="284" y="260"/>
      <point x="339" y="300"/>
      <point x="339" y="361" type="curve" smooth="yes"/>
      <point x="339" y="418"/>
      <point x="261" y="448"/>
      <point x="208" y="469" type="curve" smooth="yes"/>
      <point x="145" y="494"/>
      <point x="59" y="519"/>
      <point x="59" y="596" type="curve" smooth="yes"/>
      <point x="59" y="672"/>
      <point x="130" y="710"/>
      <point x="204" y="710" type="curve" smooth="yes"/>
      <point x="277" y="710"/>
      <point x="349" y="671"/>
      <point x="367" y="620" type="curve"/>
    </contour>
    <contour>
      <point x="55" y="137" type="line"/>
      <point x="68" y="74"/>
      <point x="137" y="20"/>
      <point x="215" y="20" type="curve" smooth="yes"/>
      <point x="272" y="20"/>
      <point x="339" y="39"/>
      <point x="339" y="107" type="curve" smooth="yes"/>
      <point x="339" y="178"/>
      <point x="264" y="203"/>
      <point x="204" y="228" type="curve" smooth="yes"/>
      <point x="142" y="254"/>
      <point x="59" y="289"/>
      <point x="59" y="359" type="curve" smooth="yes"/>
      <point x="59" y="421"/>
      <point x="110" y="480"/>
      <point x="224" y="480" type="curve"/>
      <point x="224" y="472" type="line"/>
      <point x="136" y="459"/>
      <point x="90" y="410"/>
      <point x="90" y="362" type="curve" smooth="yes"/>
      <point x="90" y="298"/>
      <point x="175" y="269"/>
      <point x="226" y="248" type="curve" smooth="yes"/>
      <point x="291" y="221"/>
      <point x="371" y="190"/>
      <point x="371" y="109" type="curve" smooth="yes"/>
      <point x="371" y="24"/>
      <point x="299" y="-10"/>
      <point x="214" y="-10" type="curve" smooth="yes"/>
      <point x="129" y="-10"/>
      <point x="44" y="48"/>
      <point x="30" y="123" type="curve"/>
    </contour>
  </outline>
</glyph>
<glyph name="dieresis" format="2">
  <advance width="436"/>
  <unicode hex="00A8"/>
  <outline>
    <contour>
      <point x="294" y="680" type="curve" smooth="yes"/>
      <point x="294" y="694"/>
      <point x="305" y="704"/>
      <point x="318" y="704" type="curve" smooth="yes"/>
      <point x="331" y="704"/>
      <point x="342" y="694"/>
      <point x="342" y="680" type="curve" smooth="yes"/>
      <point x="342" y="666"/>
      <point x="331" y="656"/>
      <point x="318" y="656" type="curve" smooth="yes"/>
      <point x="305" y="656"/>
      <point x="294" y="666"/>
    </contour>
    <contour>
      <point x="94" y="680" type="curve" smooth="yes"/>
      <point x="94" y="694"/>
      <point x="105" y="704"/>
      <point x="118" y="704" type="curve" smooth="yes"/>
      <point x="131" y="704"/>
      <point x="142" y="694"/>
      <point x="142" y="680" type="curve" smooth="yes"/>
      <point x="142" y="666"/>
      <point x="131" y="656"/>
      <point x="118" y="656" type="curve" smooth="yes"/>
      <point x="105" y="656"/>
      <point x="94" y="666"/>
    </contour>
  </outline>
</glyph>
<glyph name="ordfeminine" format="2">
  <advance width="238"/>
  <unicode hex="00AA"/>
  <outline>
    <contour>
      <point x="39" y="529" type="curve" smooth="yes"/>
      <point x="39" y="488"/>
      <point x="68" y="469"/>
      <point x="104" y="469" type="curve" smooth="yes"/>
      <point x="146" y="469"/>
      <point x="182" y="500"/>
      <point x="182" y="543" type="curve"/>
      <point x="186" y="536" type="line"/>
      <point x="186" y="492"/>
      <point x="151" y="455"/>
      <point x="101" y="455" type="curve" smooth="yes"/>
      <point x="62" y="455"/>
      <point x="24" y="478"/>
      <point x="24" y="529" type="curve" smooth="yes"/>
      <point x="24" y="577"/>
      <point x="70" y="604"/>
      <point x="117" y="604" type="curve" smooth="yes"/>
      <point x="157" y="604"/>
      <point x="178" y="589"/>
      <point x="187" y="580" type="curve"/>
      <point x="187" y="568" type="line"/>
      <point x="172" y="580"/>
      <point x="149" y="592"/>
      <point x="117" y="592" type="curve" smooth="yes"/>
      <point x="77" y="592"/>
      <point x="39" y="570"/>
    </contour>
    <contour>
      <point x="52" y="657" type="curve"/>
      <point x="43" y="669" type="line"/>
      <point x="59" y="684"/>
      <point x="86" y="702"/>
      <point x="124" y="702" type="curve" smooth="yes"/>
      <point x="171" y="702"/>
      <point x="197" y="672"/>
      <point x="197" y="628" type="curve" smooth="yes"/>
      <point x="197" y="460" type="line"/>
      <point x="182" y="460" type="line"/>
      <point x="182" y="628" type="line" smooth="yes"/>
      <point x="182" y="665"/>
      <point x="161" y="688"/>
      <point x="124" y="688" type="curve" smooth="yes"/>
      <point x="91" y="688"/>
      <point x="68" y="672"/>
    </contour>
  </outline>
</glyph>
<glyph name="uni00B3" format="2">
  <advance width="309"/>
  <unicode hex="00B3"/>
  <outline>
    <contour>
      <point x="140" y="494" type="curve"/>
      <point x="140" y="507" type="line"/>
      <point x="194" y="507"/>
      <point x="253" y="543"/>
      <point x="253" y="598" type="curve" smooth="yes"/>
      <point x="253" y="645"/>
      <point x="221" y="688"/>
      <point x="161" y="688" type="curve" smooth="yes"/>
      <point x="104" y="688"/>
      <point x="65" y="650"/>
      <point x="65" y="596" type="curve"/>
      <point x="46" y="596" type="line"/>
      <point x="46" y="661"/>
      <point x="92" y="706"/>
      <point x="161" y="706" type="curve" smooth="yes"/>
      <point x="233" y="706"/>
      <point x="273" y="653"/>
      <point x="273" y="598" type="curve" smooth="yes"/>
      <point x="273" y="535"/>
      <point x="208" y="494"/>
    </contour>
    <contour>
      <point x="158" y="274" type="curve" smooth="yes"/>
      <point x="77" y="274"/>
      <point x="28" y="326"/>
      <point x="28" y="391" type="curve"/>
      <point x="48" y="391" type="line"/>
      <point x="48" y="334"/>
      <point x="89" y="293"/>
      <point x="158" y="293" type="curve" smooth="yes"/>
      <point x="223" y="293"/>
      <point x="265" y="333"/>
      <point x="265" y="389" type="curve" smooth="yes"/>
      <point x="265" y="457"/>
      <point x="194" y="490"/>
      <point x="140" y="490" type="curve"/>
      <point x="140" y="503" type="line"/>
      <point x="208" y="503"/>
      <point x="285" y="466"/>
      <point x="285" y="387" type="curve" smooth="yes"/>
      <point x="285" y="320"/>
      <point x="233" y="274"/>
    </contour>
  </outline>
</glyph>
<glyph name="paragraph" format="2">
  <advance width="487"/>
  <unicode hex="00B6"/>
  <outline>
    <contour>
      <point x="288" y="674" type="line"/>
      <point x="288" y="700" type="line"/>
      <point x="418" y="700" type="line"/>
      <point x="418" y="674" type="line"/>
    </contour>
    <contour>
      <point x="399" y="700" type="line"/>
      <point x="427" y="700" type="line"/>
      <point x="427" y="-220" type="line"/>
      <point x="399" y="-220" type="line"/>
    </contour>
    <contour>
      <point x="288" y="700" type="line"/>
      <point x="316" y="700" type="line"/>
      <point x="316" y="-220" type="line"/>
      <point x="288" y="-220" type="line"/>
    </contour>
    <contour>
      <point x="288" y="270" type="line"/>
      <point x="163" y="270"/>
      <point x="60" y="346"/>
      <point x="60" y="485" type="curve" smooth="yes"/>
      <point x="60" y="624"/>
      <point x="163" y="700"/>
      <point x="288" y="700" type="curve"/>
    </contour>
  </outline>
</glyph>
<glyph name="cedilla" format="2">
  <advance width="350"/>
  <unicode hex="00B8"/>
  <outline>
    <contour>
      <point x="182" y="18" type="line"/>
      <point x="209" y="18" type="line"/>
      <point x="150" y="-69" type="line"/>
      <point x="169" y="-58"/>
      <point x="178" y="-52"/>
      <point x="202" y="-52" type="curve" smooth="yes"/>
      <point x="235" y="-52"/>
      <point x="275" y="-77"/>
      <point x="275" y="-126" type="curve" smooth="yes"/>
      <point x="275" y="-187"/>
      <point x="223" y="-220"/>
      <point x="168" y="-220" type="curve" smooth="yes"/>
      <point x="131" y="-220"/>
      <point x="107" y="-210"/>
      <point x="79" y="-182" type="curve"/>
      <point x="94" y="-166" type="line"/>
      <point x="119" y="-188"/>
      <point x="137" y="-197"/>
      <point x="168" y="-197" type="curve" smooth="yes"/>
      <point x="211" y="-197"/>
      <point x="251" y="-172"/>
      <point x="251" y="-126" type="curve" smooth="yes"/>
      <point x="251" y="-88"/>
      <point x="222" y="-70"/>
      <point x="192" y="-70" type="curve" smooth="yes"/>
      <point x="168" y="-70"/>
      <point x="140" y="-79"/>
      <point x="118" y="-94" type="curve"/>
    </contour>
  </outline>
</glyph>
<glyph name="questiondown" format="2">
  <advance width="546"/>
  <unicode hex="00BF"/>
  <outline>
    <contour>
      <point x="105" y="186" type="curve" smooth="yes"/>
      <point x="105" y="90"/>
      <point x="170" y="20"/>
      <point x="281" y="20" type="curve" smooth="yes"/>
      <point x="365" y="20"/>
      <point x="417" y="61"/>
      <point x="457" y="124" type="curve"/>
      <point x="483" y="107" type="line"/>
      <point x="437" y="37"/>
      <point x="383" y="-10"/>
      <point x="278" y="-10" type="curve" smooth="yes"/>
      <point x="153" y="-10"/>
      <point x="74" y="74"/>
      <point x="74" y="186" type="curve" smooth="yes"/>
      <point x="74" y="289"/>
      <point x="174" y="374"/>
      <point x="297" y="377" type="curve"/>
      <point x="299" y="530" type="line"/>
      <point x="322" y="530" type="line"/>
      <point x="332" y="355" type="line"/>
      <point x="324" y="355" type="line"/>
      <point x="197" y="355"/>
      <point x="105" y="276"/>
    </contour>
    <contour>
      <point x="338" y="687" type="curve" smooth="yes"/>
      <point x="338" y="673"/>
      <point x="327" y="663"/>
      <point x="314" y="663" type="curve" smooth="yes"/>
      <point x="301" y="663"/>
      <point x="290" y="673"/>
      <point x="290" y="687" type="curve" smooth="yes"/>
      <point x="290" y="701"/>
      <point x="301" y="712"/>
      <point x="314" y="712" type="curve" smooth="yes"/>
      <point x="327" y="712"/>
      <point x="338" y="701"/>
    </contour>
  </outline>
</glyph>
<glyph name="Edieresis" format="2">
  <advance width="522"/>
  <unicode hex="00CB"/>
  <outline>
    <contour>
      <point x="102" y="0" type="line"/>
      <point x="102" y="31" type="line"/>
      <point x="445" y="31" type="line"/>
      <point x="445" y="0" type="line"/>
    </contour>
    <contour>
      <point x="102" y="669" type="line"/>
      <point x="102" y="700" type="line"/>
      <point x="445" y="700" type="line"/>
      <point x="445" y="669" type="line"/>
    </contour>
    <contour>
      <point x="102" y="371" type="line"/>
      <point x="102" y="402" type="line"/>
      <point x="425" y="402" type="line"/>
      <point x="425" y="371" type="line"/>
    </contour>
    <contour>
      <point x="87" y="700" type="line"/>
      <point x="120" y="700" type="line"/>
      <point x="120" y="0" type="line"/>
      <point x="87" y="0" type="line"/>
    </contour>
    <contour>
      <point x="345" y="813" type="curve" smooth="yes"/>
      <point x="345" y="827"/>
      <point x="356" y="837"/>
      <point x="369" y="837" type="curve" smooth="yes"/>
      <point x="382" y="837"/>
      <point x="393" y="827"/>
      <point x="393" y="813" type="curve" smooth="yes"/>
      <point x="393" y="799"/>
      <point x="382" y="789"/>
      <point x="369" y="789" type="curve" smooth="yes"/>
      <point x="356" y="789"/>
      <point x="345" y="799"/>
    </contour>
    <contour>
      <point x="145" y="813" type="curve" smooth="yes"/>
      <point x="145" y="827"/>
      <point x="156" y="837"/>
      <point x="169" y="837" type="curve" smooth="yes"/>
      <point x="182" y="837"/>
      <point x="193" y="827"/>
      <point x="193" y="813" type="curve" smooth="yes"/>
      <point x="193" y="799"/>
      <point x="182" y="789"/>
      <point x="169" y="789" type="curve" smooth="yes"/>
      <point x="156" y="789"/>
      <point x="145" y="799"/>
    </contour>
  </outline>
</glyph>
<glyph name="Igrave" format="2">
  <advance width="199"/>
  <unicode hex="00CC"/>
  <outline>
    <contour>
      <point x="84" y="700" type="line"/>
      <point x="116" y="700" type="line"/>
      <point x="116" y="0" type="line"/>
      <point x="84" y="0" type="line"/>
    </contour>
    <contour>
      <point x="-49" y="924" type="line"/>
      <point x="-20" y="941" type="line"/>
      <point x="144" y="781" type="line"/>
      <point x="127" y="769" type="line"/>
    </contour>
  </outline>
</glyph>
<glyph name="Ograve" format="2">
  <advance width="778"/>
  <unicode hex="00D2"/>
  <outline>
    <contour>
      <point x="82" y="350" type="curve" smooth="yes"/>
      <point x="82" y="162"/>
      <point x="209" y="25"/>
      <point x="389" y="25" type="curve" smooth="yes"/>
      <point x="569" y="25"/>
      <point x="697" y="162"/>
      <point x="697" y="350" type="curve" smooth="yes"/>
      <point x="697" y="538"/>
      <point x="569" y="675"/>
      <point x="389" y="675" type="curve" smooth="yes"/>
      <point x="209" y="675"/>
      <point x="82" y="538"/>
    </contour>
    <contour>
      <point x="47" y="350" type="curve" smooth="yes"/>
      <point x="47" y="558"/>
      <point x="192" y="709"/>
      <point x="389" y="709" type="curve" smooth="yes"/>
      <point x="586" y="709"/>
      <point x="732" y="558"/>
      <point x="732" y="350" type="curve" smooth="yes"/>
      <point x="732" y="142"/>
      <point x="586" y="-9"/>
      <point x="389" y="-9" type="curve" smooth="yes"/>
      <point x="192" y="-9"/>
      <point x="47" y="142"/>
    </contour>
    <contour>
      <point x="259" y="924" type="line"/>
      <point x="287" y="941" type="line"/>
      <point x="451" y="781" type="line"/>
      <point x="433" y="769" type="line"/>
    </contour>
  </outline>
</glyph>
<glyph name="Ocircumflex" format="2">
  <advance width="778"/>
  <unicode hex="00D4"/>
  <outline>
    <contour>
      <point x="82" y="350" type="curve" smooth="yes"/>
      <point x="82" y="162"/>
      <point x="209" y="25"/>
      <point x="389" y="25" type="curve" smooth="yes"/>
      <point x="569" y="25"/>
      <point x="697" y="162"/>
      <point x="697" y="350" type="curve" smooth="yes"/>
      <point x="697" y="538"/>
      <point x="569" y="675"/>
      <point x="389" y="675" type="curve" smooth="yes"/>
      <point x="209" y="675"/>
      <point x="82" y="538"/>
    </contour>
    <contour>
      <point x="47" y="350" type="curve" smooth="yes"/>
      <point x="47" y="558"/>
      <point x="192" y="709"/>
      <point x="389" y="709" type="curve" smooth="yes"/>
      <point x="586" y="709"/>
      <point x="732" y="558"/>
      <point x="732" y="350" type="curve" smooth="yes"/>
      <point x="732" y="142"/>
      <point x="586" y="-9"/>
      <point x="389" y="-9" type="curve" smooth="yes"/>
      <point x="192" y="-9"/>
      <point x="47" y="142"/>
    </contour>
    <contour>
      <point x="389" y="892" type="line"/>
      <point x="249" y="769" type="line"/>
      <point x="229" y="786" type="line"/>
      <point x="389" y="926" type="line"/>
      <point x="549" y="786" type="line"/>
      <point x="530" y="769" type="line"/>
    </contour>
  </outline>
</glyph>
<glyph name="Otilde" format="2">
  <advance width="778"/>
  <unicode hex="00D5"/>
  <outline>
    <contour>
      <point x="82" y="350" type="curve" smooth="yes"/>
      <point x="82" y="162"/>
      <point x="209" y="25"/>
      <point x="389" y="25" type="curve" smooth="yes"/>
      <point x="569" y="25"/>
      <point x="697" y="162"/>
      <point x="697" y="350" type="curve" smooth="yes"/>
      <point x="697" y="538"/>
      <point x="569" y="675"/>
      <point x="389" y="675" type="curve" smooth="yes"/>
      <point x="209" y="675"/>
      <point x="82" y="538"/>
    </contour>
    <contour>
      <point x="47" y="350" type="curve" smooth="yes"/>
      <point x="47" y="558"/>
      <point x="192" y="709"/>
      <point x="389" y="709" type="curve" smooth="yes"/>
      <point x="586" y="709"/>
      <point x="732" y="558"/>
      <point x="732" y="350" type="curve" smooth="yes"/>
      <point x="732" y="142"/>
      <point x="586" y="-9"/>
      <point x="389" y="-9" type="curve" smooth="yes"/>
      <point x="192" y="-9"/>
      <point x="47" y="142"/>
    </contour>
    <contour>
      <point x="252" y="794" type="line"/>
      <point x="255" y="829"/>
      <point x="282" y="860"/>
      <point x="327" y="860" type="curve" smooth="yes"/>
      <point x="385" y="860"/>
      <point x="397" y="813"/>
      <point x="451" y="813" type="curve" smooth="yes"/>
      <point x="477" y="813"/>
      <point x="491" y="829"/>
      <point x="507" y="861" type="curve"/>
      <point x="526" y="846" type="line"/>
      <point x="510" y="809"/>
      <point x="484" y="787"/>
      <point x="448" y="787" type="curve" smooth="yes"/>
      <point x="393" y="787"/>
      <point x="373" y="834"/>
      <point x="328" y="834" type="curve" smooth="yes"/>
      <point x="287" y="834"/>
      <point x="274" y="805"/>
      <point x="274" y="783" type="curve"/>
    </contour>
  </outline>
</glyph>
<glyph name="Udieresis" format="2">
  <advance width="591"/>
  <unicode hex="00DC"/>
  <outline>
    <contour>
      <point x="82" y="700" type="line"/>
      <point x="115" y="700" type="line"/>
      <point x="115" y="223" type="line" smooth="yes"/>
      <point x="115" y="99"/>
      <point x="182" y="22"/>
      <point x="296" y="22" type="curve" smooth="yes"/>
      <point x="410" y="22"/>
      <point x="476" y="99"/>
      <point x="476" y="223" type="curve" smooth="yes"/>
      <point x="476" y="700" type="line"/>
      <point x="509" y="700" type="line"/>
      <point x="509" y="223" type="line" smooth="yes"/>
      <point x="509" y="84"/>
      <point x="434" y="-10"/>
      <point x="296" y="-10" type="curve" smooth="yes"/>
      <point x="158" y="-10"/>
      <point x="82" y="84"/>
      <point x="82" y="223" type="curve" smooth="yes"/>
    </contour>
    <contour>
      <point x="364" y="793" type="curve" smooth="yes"/>
      <point x="364" y="807"/>
      <point x="375" y="817"/>
      <point x="388" y="817" type="curve" smooth="yes"/>
      <point x="401" y="817"/>
      <point x="413" y="807"/>
      <point x="413" y="793" type="curve" smooth="yes"/>
      <point x="413" y="779"/>
      <point x="401" y="769"/>
      <point x="388" y="769" type="curve" smooth="yes"/>
      <point x="375" y="769"/>
      <point x="364" y="779"/>
    </contour>
    <contour>
      <point x="178" y="793" type="curve" smooth="yes"/>
      <point x="178" y="807"/>
      <point x="189" y="817"/>
      <point x="202" y="817" type="curve" smooth="yes"/>
      <point x="215" y="817"/>
      <point x="227" y="807"/>
      <point x="227" y="793" type="curve" smooth="yes"/>
      <point x="227" y="779"/>
      <point x="215" y="769"/>
      <point x="202" y="769" type="curve" smooth="yes"/>
      <point x="189" y="769"/>
      <point x="178" y="779"/>
    </contour>
  </outline>
</glyph>
<glyph name="Thorn" format="2">
  <advance width="529"/>
  <unicode hex="00DE"/>
  <outline>
    <contour>
      <point x="80" y="700" type="line"/>
      <point x="112" y="700" type="line"/>
      <point x="112" y="0" type="line"/>
      <point x="80" y="0" type="line"/>
    </contour>
    <contour>
      <point x="97" y="529" type="line"/>
      <point x="97" y="560" type="line"/>
      <point x="249" y="560" type="line" smooth="yes"/>
      <point x="384" y="560"/>
      <point x="487" y="479"/>
      <point x="487" y="350" type="curve" smooth="yes"/>
      <point x="487" y="221"/>
      <point x="384" y="140"/>
      <point x="249" y="140" type="curve" smooth="yes"/>
      <point x="97" y="140" type="line"/>
      <point x="97" y="171" type="line"/>
      <point x="249" y="171" type="line" smooth="yes"/>
      <point x="363" y="171"/>
      <point x="454" y="243"/>
      <point x="454" y="350" type="curve" smooth="yes"/>
      <point x="454" y="464"/>
      <point x="363" y="529"/>
      <point x="249" y="529" type="curve" smooth="yes"/>
    </contour>
  </outline>
</glyph>
<glyph name="odieresis" format="2">
  <advance width="553"/>
  <unicode hex="00F6"/>
  <outline>
    <contour>
      <point x="42" y="230" type="curve" smooth="yes"/>
      <point x="42" y="369"/>
      <point x="143" y="470"/>
      <point x="276" y="470" type="curve" smooth="yes"/>
      <point x="409" y="470"/>
      <point x="511" y="369"/>
      <point x="511" y="230" type="curve" smooth="yes"/>
      <point x="511" y="91"/>
      <point x="409" y="-10"/>
      <point x="276" y="-10" type="curve" smooth="yes"/>
      <point x="143" y="-10"/>
      <point x="42" y="91"/>
    </contour>
    <contour>
      <point x="73" y="230" type="curve" smooth="yes"/>
      <point x="73" y="107"/>
      <point x="162" y="20"/>
      <point x="276" y="20" type="curve" smooth="yes"/>
      <point x="390" y="20"/>
      <point x="480" y="107"/>
      <point x="480" y="230" type="curve" smooth="yes"/>
      <point x="480" y="353"/>
      <point x="390" y="440"/>
      <point x="276" y="440" type="curve" smooth="yes"/>
      <point x="162" y="440"/>
      <point x="73" y="353"/>
    </contour>
    <contour>
      <point x="352" y="577" type="curve" smooth="yes"/>
      <point x="352" y="591"/>
      <point x="363" y="601"/>
      <point x="376" y="601" type="curve" smooth="yes"/>
      <point x="389" y="601"/>
      <point x="401" y="591"/>
      <point x="401" y="577" type="curve" smooth="yes"/>
      <point x="401" y="563"/>
      <point x="389" y="553"/>
      <point x="376" y="553" type="curve" smooth="yes"/>
      <point x="363" y="553"/>
      <point x="352" y="563"/>
    </contour>
    <contour>
      <point x="152" y="577" type="curve" smooth="yes"/>
      <point x="152" y="591"/>
      <point x="163" y="601"/>
      <point x="176" y="601" type="curve" smooth="yes"/>
      <point x="189" y="601"/>
      <point x="201" y="591"/>
      <point x="201" y="577" type="curve" smooth="yes"/>
      <point x="201" y="563"/>
      <point x="189" y="553"/>
      <point x="176" y="553" type="curve" smooth="yes"/>
      <point x="163" y="553"/>
      <point x="152" y="563"/>
    </contour>
  </outline>
</glyph>
<glyph name="divide" format="2">
  <advance width="623"/>
  <unicode hex="00F7"/>
  <outline>
    <contour>
      <point x="286" y="451" type="curve" smooth="yes"/>
      <point x="286" y="465"/>
      <point x="297" y="475"/>
      <point x="310" y="475" type="curve" smooth="yes"/>
      <point x="323" y="475"/>
      <point x="334" y="465"/>
      <point x="334" y="451" type="curve" smooth="yes"/>
      <point x="334" y="437"/>
      <point x="323" y="426"/>
      <point x="310" y="426" type="curve" smooth="yes"/>
      <point x="297" y="426"/>
      <point x="286" y="437"/>
    </contour>
    <contour>
      <point x="286" y="43" type="curve" smooth="yes"/>
      <point x="286" y="57"/>
      <point x="297" y="67"/>
      <point x="310" y="67" type="curve" smooth="yes"/>
      <point x="323" y="67"/>
      <point x="334" y="57"/>
      <point x="334" y="43" type="curve" smooth="yes"/>
      <point x="334" y="29"/>
      <point x="323" y="18"/>
      <point x="310" y="18" type="curve" smooth="yes"/>
      <point x="297" y="18"/>
      <point x="286" y="29"/>
    </contour>
    <contour>
      <point x="60" y="232" type="line"/>
      <point x="60" y="263" type="line"/>
      <point x="560" y="263" type="line"/>
      <point x="560" y="232" type="line"/>
    </contour>
  </outline>
</glyph>
<glyph name="oslash" format="2">
  <advance width="546"/>
  <unicode hex="00F8"/>
  <outline>
    <contour>
      <point x="42" y="230" type="curve" smooth="yes"/>
      <point x="42" y="369"/>
      <point x="143" y="470"/>
      <point x="276" y="470" type="curve" smooth="yes"/>
      <point x="409" y="470"/>
      <point x="511" y="369"/>
      <point x="511" y="230" type="curve" smooth="yes"/>
      <point x="511" y="91"/>
      <point x="409" y="-10"/>
      <point x="276" y="-10" type="curve" smooth="yes"/>
      <point x="143" y="-10"/>
      <point x="42" y="91"/>
    </contour>
    <contour>
      <point x="73" y="230" type="curve" smooth="yes"/>
      <point x="73" y="107"/>
      <point x="162" y="20"/>
      <point x="276" y="20" type="curve" smooth="yes"/>
      <point x="390" y="20"/>
      <point x="480" y="107"/>
      <point x="480" y="230" type="curve" smooth="yes"/>
      <point x="480" y="353"/>
      <point x="390" y="440"/>
      <point x="276" y="440" type="curve" smooth="yes"/>
      <point x="162" y="440"/>
      <point x="73" y="353"/>
    </contour>
    <contour>
      <point x="453" y="495" type="line"/>
      <point x="472" y="485" type="line"/>
      <point x="82" y="-39" type="line"/>
      <point x="63" y="-29" type="line"/>
    </contour>
  </outline>
</glyph>
<glyph name="uacute" format="2">
  <advance width="490"/>
  <unicode hex="00FA"/>
  <outline>
    <contour>
      <point x="377" y="0" type="line"/>
      <point x="377" y="460" type="line"/>
      <point x="408" y="460" type="line"/>
      <point x="408" y="0" type="line"/>
    </contour>
    <contour>
      <point x="113" y="159" type="line" smooth="yes"/>
      <point x="113" y="73"/>
      <point x="146" y="20"/>
      <point x="228" y="20" type="curve" smooth="yes"/>
      <point x="313" y="20"/>
      <point x="377" y="94"/>
      <point x="377" y="180" type="curve"/>
      <point x="391" y="180" type="line"/>
      <point x="391" y="71"/>
      <point x="317" y="-10"/>
      <point x="222" y="-10" type="curve" smooth="yes"/>
      <point x="127" y="-10"/>
      <point x="82" y="51"/>
      <point x="82" y="156" type="curve" smooth="yes"/>
      <point x="82" y="460" type="line"/>
      <point x="113" y="460" type="line"/>
    </contour>
    <contour>
      <point x="390" y="698" type="line"/>
      <point x="215" y="543" type="line"/>
      <point x="198" y="556" type="line"/>
      <point x="362" y="716" type="line"/>
    </contour>
  </outline>
</glyph>
<glyph name="Ebreve" format="2">
  <advance width="522"/>
  <unicode hex="0114"/>
  <outline>
    <contour>
      <point x="102" y="0" type="line"/>
      <point x="102" y="31" type="line"/>
      <point x="445" y="31" type="line"/>
      <point x="445" y="0" type="line"/>
    </contour>
    <contour>
      <point x="102" y="669" type="line"/>
      <point x="102" y="700" type="line"/>
      <point x="445" y="700" type="line"/>
      <point x="445" y="669" type="line"/>
    </contour>
    <contour>
      <point x="102" y="371" type="line"/>
      <point x="102" y="402" type="line"/>
      <point x="425" y="402" type="line"/>
      <point x="425" y="371" type="line"/>
    </contour>
    <contour>
      <point x="87" y="700" type="line"/>
      <point x="120" y="700" type="line"/>
      <point x="120" y="0" type="line"/>
      <point x="87" y="0" type="line"/>
    </contour>
    <contour>
      <point x="115" y="909" type="curve"/>
      <point x="143" y="909" type="line"/>
      <point x="143" y="855"/>
      <point x="188" y="795"/>
      <point x="273" y="795" type="curve" smooth="yes"/>
      <point x="358" y="795"/>
      <point x="403" y="855"/>
      <point x="403" y="909" type="curve"/>
      <point x="431" y="909" type="line"/>
      <point x="431" y="840"/>
      <point x="378" y="769"/>
      <point x="273" y="769" type="curve" smooth="yes"/>
      <point x="168" y="769"/>
      <point x="115" y="840"/>
    </contour>
  </outline>
</glyph>
<glyph name="Eogonek" format="2">
  <advance width="522"/>
  <unicode hex="0118"/>
  <outline>
    <contour>
      <point x="102" y="0" type="line"/>
      <point x="102" y="31" type="line"/>
      <point x="445" y="31" type="line"/>
      <point x="445" y="0" type="line"/>
    </contour>
    <contour>
      <point x="102" y="669" type="line"/>
      <point x="102" y="700" type="line"/>
      <point x="445" y="700" type="line"/>
      <point x="445" y="669" type="line"/>
    </contour>
    <contour>
      <point x="102" y="371" type="line"/>
      <point x="102" y="402" type="line"/>
      <point x="425" y="402" type="line"/>
      <point x="425" y="371" type="line"/>
    </contour>
    <contour>
      <point x="87" y="700" type="line"/>
      <point x="120" y="700" type="line"/>
      <point x="120" y="0" type="line"/>
      <point x="87" y="0" type="line"/>
    </contour>
    <contour>
      <point x="434" y="-160" type="curve"/>
      <point x="449" y="-180" type="line"/>
      <point x="434" y="-200"/>
      <point x="397" y="-220"/>
      <point x="354" y="-220" type="curve" smooth="yes"/>
      <point x="284" y="-220"/>
      <point x="245" y="-186"/>
      <point x="245" y="-134" type="curve" smooth="yes"/>
      <point x="245" y="-68"/>
      <point x="322" y="-22"/>
      <point x="392" y="14" type="curve"/>
      <point x="409" y="0" type="line"/>
      <point x="346" y="-29"/>
      <point x="276" y="-77"/>
      <point x="276" y="-128" type="curve" smooth="yes"/>
      <point x="276" y="-171"/>
      <point x="312" y="-192"/>
      <point x="356" y="-192" type="curve" smooth="yes"/>
      <point x="392" y="-192"/>
      <point x="419" y="-176"/>
    </contour>
  </outline>
</glyph>
<glyph name="Gbreve" format="2">
  <advance width="768"/>
  <unicode hex="011E"/>
  <outline>
    <contour>
      <point x="416" y="314" type="line"/>
      <point x="416" y="344" type="line"/>
      <point x="716" y="344" type="line"/>
      <point x="716" y="157"/>
      <point x="592" y="-9"/>
      <point x="392" y="-9" type="curve" smooth="yes"/>
      <point x="195" y="-9"/>
      <point x="47" y="141"/>
      <point x="47" y="350" type="curve" smooth="yes"/>
      <point x="47" y="559"/>
      <point x="195" y="709"/>
      <point x="392" y="709" type="curve" smooth="yes"/>
      <point x="521" y="709"/>
      <point x="613" y="648"/>
      <point x="673" y="558" type="curve"/>
      <point x="648" y="537" type="line"/>
      <point x="600" y="617"/>
      <point x="510" y="675"/>
      <point x="392" y="675" type="curve" smooth="yes"/>
      <point x="214" y="675"/>
      <point x="82" y="541"/>
      <point x="82" y="350" type="curve" smooth="yes"/>
      <point x="82" y="161"/>
      <point x="213" y="25"/>
      <point x="392" y="25" type="curve" smooth="yes"/>
      <point x="562" y="25"/>
      <point x="671" y="159"/>
      <point x="681" y="314" type="curve"/>
    </contour>
    <contour>
      <point x="234" y="909" type="curve"/>
      <point x="262" y="909" type="line"/>
      <point x="262" y="855"/>
      <point x="307" y="795"/>
      <point x="392" y="795" type="curve" smooth="yes"/>
      <point x="477" y="795"/>
      <point x="521" y="855"/>
      <point x="521" y="909" type="curve"/>
      <point x="550" y="909" type="line"/>
      <point x="550" y="840"/>
      <point x="497" y="769"/>
      <point x="392" y="769" type="curve" smooth="yes"/>
      <point x="287" y="769"/>
      <point x="234" y="840"/>
    </contour>
  </outline>
</glyph>
<glyph name="gbreve" format="2">
  <advance width="549"/>
  <unicode hex="011F"/>
  <outline>
    <contour>
      <point x="55" y="-30" type="curve"/>
      <point x="86" y="-30" type="line"/>
      <point x="86" y="-131"/>
      <point x="156" y="-200"/>
      <point x="258" y="-200" type="curve" smooth="yes"/>
      <point x="354" y="-200"/>
      <point x="442" y="-133"/>
      <point x="442" y="10" type="curve" smooth="yes"/>
      <point x="442" y="460" type="line"/>
      <point x="473" y="460" type="line"/>
      <point x="473" y="10" type="line" smooth="yes"/>
      <point x="473" y="-149"/>
      <point x="373" y="-230"/>
      <point x="258" y="-230" type="curve" smooth="yes"/>
      <point x="137" y="-230"/>
      <point x="55" y="-149"/>
    </contour>
    <contour>
      <point x="42" y="230" type="curve" smooth="yes"/>
      <point x="42" y="378"/>
      <point x="138" y="470"/>
      <point x="260" y="470" type="curve" smooth="yes"/>
      <point x="381" y="470"/>
      <point x="456" y="358"/>
      <point x="456" y="230" type="curve" smooth="yes"/>
      <point x="456" y="102"/>
      <point x="381" y="-10"/>
      <point x="260" y="-10" type="curve" smooth="yes"/>
      <point x="138" y="-10"/>
      <point x="42" y="82"/>
    </contour>
    <contour>
      <point x="73" y="230" type="curve" smooth="yes"/>
      <point x="73" y="100"/>
      <point x="158" y="20"/>
      <point x="265" y="20" type="curve" smooth="yes"/>
      <point x="363" y="20"/>
      <point x="442" y="118"/>
      <point x="442" y="234" type="curve" smooth="yes"/>
      <point x="442" y="340"/>
      <point x="363" y="440"/>
      <point x="265" y="440" type="curve" smooth="yes"/>
      <point x="158" y="440"/>
      <point x="73" y="360"/>
    </contour>
    <contour>
      <point x="102" y="670" type="curve"/>
      <point x="130" y="670" type="line"/>
      <point x="130" y="616"/>
      <point x="175" y="556"/>
      <point x="260" y="556" type="curve" smooth="yes"/>
      <point x="345" y="556"/>
      <point x="389" y="616"/>
      <point x="389" y="670" type="curve"/>
      <point x="418" y="670" type="line"/>
      <point x="418" y="601"/>
      <point x="365" y="530"/>
      <point x="260" y="530" type="curve" smooth="yes"/>
      <point x="155" y="530"/>
      <point x="102" y="601"/>
    </contour>
  </outline>
</glyph>
<glyph name="Hbar" format="2">
  <advance width="667"/>
  <unicode hex="0126"/>
  <outline>
    <contour>
      <point x="103" y="366" type="line"/>
      <point x="103" y="397" type="line"/>
      <point x="569" y="397" type="line"/>
      <point x="569" y="366" type="line"/>
    </contour>
    <contour>
      <point x="547" y="700" type="line"/>
      <point x="580" y="700" type="line"/>
      <point x="580" y="0" type="line"/>
      <point x="547" y="0" type="line"/>
    </contour>
    <contour>
      <point x="87" y="700" type="line"/>
      <point x="120" y="700" type="line"/>
      <point x="120" y="0" type="line"/>
      <point x="87" y="0" type="line"/>
    </contour>
    <contour>
      <point x="5" y="586" type="line"/>
      <point x="5" y="615" type="line"/>
      <point x="662" y="615" type="line"/>
      <point x="662" y="586" type="line"/>
    </contour>
  </outline>
</glyph>
<glyph name="Itilde" format="2">
  <advance width="199"/>
  <unicode hex="0128"/>
  <outline>
    <contour>
      <point x="84" y="700" type="line"/>
      <point x="116" y="700" type="line"/>
      <point x="116" y="0" type="line"/>
      <point x="84" y="0" type="line"/>
    </contour>
    <contour>
      <point x="-30" y="824" type="line"/>
      <point x="-27" y="859"/>
      <point x="-1" y="889"/>
      <point x="44" y="889" type="curve" smooth="yes"/>
      <point x="102" y="889"/>
      <point x="114" y="842"/>
      <point x="168" y="842" type="curve" smooth="yes"/>
      <point x="194" y="842"/>
      <point x="208" y="858"/>
      <point x="224" y="890" type="curve"/>
      <point x="245" y="875" type="line"/>
      <point x="229" y="838"/>
      <point x="203" y="816"/>
      <point x="167" y="816" type="curve" smooth="yes"/>
      <point x="112" y="816"/>
      <point x="91" y="863"/>
      <point x="46" y="863" type="curve" smooth="yes"/>
      <point x="5" y="863"/>
      <point x="-8" y="834"/>
      <point x="-8" y="812" type="curve"/>
    </contour>
  </outline>
</glyph>
<glyph name="Iogonek" format="2">
  <advance width="199"/>
  <unicode hex="012E"/>
  <outline>
    <contour>
      <point x="84" y="700" type="line"/>
      <point x="116" y="700" type="line"/>
      <point x="116" y="0" type="line"/>
      <point x="84" y="0" type="line"/>
    </contour>
    <contour>
      <point x="141" y="-160" type="curve"/>
      <point x="156" y="-180" type="line"/>
      <point x="141" y="-200"/>
      <point x="104" y="-220"/>
      <point x="61" y="-220" type="curve" smooth="yes"/>
      <point x="-9" y="-220"/>
      <point x="-48" y="-186"/>
      <point x="-48" y="-134" type="curve" smooth="yes"/>
      <point x="-48" y="-68"/>
      <point x="29" y="-22"/>
      <point x="99" y="14" type="curve"/>
      <point x="116" y="0" type="line"/>
      <point x="53" y="-29"/>
      <point x="-17" y="-77"/>
      <point x="-17" y="-128" type="curve" smooth="yes"/>
      <point x="-17" y="-171"/>
      <point x="19" y="-192"/>
      <point x="63" y="-192" type="curve" smooth="yes"/>
      <point x="99" y="-192"/>
      <point x="126" y="-176"/>
    </contour>
  </outline>
</glyph>
<glyph name="iogonek" format="2">
  <advance width="211"/>
  <unicode hex="012F"/>
  <outline>
    <contour>
      <point x="82" y="682" type="curve" smooth="yes"/>
      <point x="82" y="695"/>
      <point x="92" y="705"/>
      <point x="106" y="705" type="curve" smooth="yes"/>
      <point x="120" y="705"/>
      <point x="129" y="695"/>
      <point x="129" y="682" type="curve" smooth="yes"/>
      <point x="129" y="669"/>
      <point x="120" y="658"/>
      <point x="106" y="658" type="curve" smooth="yes"/>
      <point x="92" y="658"/>
      <point x="82" y="669"/>
    </contour>
    <contour>
      <point x="90" y="460" type="line"/>
      <point x="121" y="460" type="line"/>
      <point x="121" y="0" type="line"/>
      <point x="90" y="0" type="line"/>
    </contour>
    <contour>
      <point x="146" y="-160" type="curve"/>
      <point x="161" y="-180" type="line"/>
      <point x="146" y="-200"/>
      <point x="109" y="-220"/>
      <point x="66" y="-220" type="curve" smooth="yes"/>
      <point x="-4" y="-220"/>
      <point x="-43" y="-186"/>
      <point x="-43" y="-134" type="curve" smooth="yes"/>
      <point x="-43" y="-68"/>
      <point x="34" y="-22"/>
      <point x="104" y="14" type="curve"/>
      <point x="121" y="0" type="line"/>
      <point x="58" y="-29"/>
      <point x="-12" y="-77"/>
      <point x="-12" y="-128" type="curve" smooth="yes"/>
      <point x="-12" y="-171"/>
      <point x="24" y="-192"/>
      <point x="68" y="-192" type="curve" smooth="yes"/>
      <point x="104" y="-192"/>
      <point x="131" y="-176"/>
    </contour>
  </outline>
</glyph>
<glyph name="Lacute" format="2">
  <advance width="436"/>
  <unicode hex="0139"/>
  <outline>
    <contour>
      <point x="87" y="700" type="line"/>
      <point x="120" y="700" type="line"/>
      <point x="120" y="31" type="line"/>
      <point x="419" y="31" type="line"/>
      <point x="419" y="0" type="line"/>
      <point x="87" y="0" type="line"/>
    </contour>
    <contour>
      <point x="415" y="924" type="line"/>
      <point x="239" y="769" type="line"/>
      <point x="223" y="781" type="line"/>
      <point x="387" y="941" type="line"/>
    </contour>
  </outline>
</glyph>
<glyph name="oe" format="2">
  <advance width="918"/>
  <unicode hex="0153"/>
  <outline>
    <contour>
      <point x="843" y="250" type="line"/>
      <point x="843" y="350"/>
      <point x="773" y="442"/>
      <point x="662" y="442" type="curve" smooth="yes"/>
      <point x="547" y="442"/>
      <point x="472" y="347"/>
      <point x="472" y="240" type="curve"/>
      <point x="471" y="231" type="line"/>
      <point x="471" y="104"/>
      <point x="551" y="20"/>
      <point x="662" y="20" type="curve" smooth="yes"/>
      <point x="749" y="20"/>
      <point x="806" y="63"/>
      <point x="843" y="124" type="curve"/>
      <point x="868" y="106" type="line"/>
      <point x="822" y="36"/>
      <point x="761" y="-10"/>
      <point x="662" y="-10" type="curve" smooth="yes"/>
      <point x="530" y="-10"/>
      <point x="445" y="98"/>
      <point x="445" y="230" type="curve" smooth="yes"/>
      <point x="445" y="247"/>
      <point x="446" y="263"/>
      <point x="449" y="279" type="curve" smooth="yes"/>
      <point x="468" y="392"/>
      <point x="553" y="470"/>
      <point x="665" y="470" type="curve" smooth="yes"/>
      <point x="775" y="470"/>
      <point x="876" y="378"/>
      <point x="876" y="247" type="curve" smooth="yes"/>
      <point x="876" y="239"/>
      <point x="875" y="231"/>
      <point x="874" y="223" type="curve"/>
      <point x="842" y="229" type="line"/>
    </contour>
    <contour>
      <point x="463" y="223" type="line"/>
      <point x="463" y="250" type="line"/>
      <point x="868" y="250" type="line"/>
      <point x="874" y="223" type="line"/>
    </contour>
    <contour>
      <point x="42" y="230" type="curve" smooth="yes"/>
      <point x="42" y="379"/>
      <point x="138" y="470"/>
      <point x="256" y="470" type="curve" smooth="yes"/>
      <point x="367" y="470"/>
      <point x="460" y="379"/>
      <point x="460" y="230" type="curve" smooth="yes"/>
      <point x="460" y="81"/>
      <point x="367" y="-10"/>
      <point x="256" y="-10" type="curve" smooth="yes"/>
      <point x="138" y="-10"/>
      <point x="42" y="81"/>
    </contour>
    <contour>
      <point x="73" y="230" type="curve" smooth="yes"/>
      <point x="73" y="100"/>
      <point x="156" y="20"/>
      <point x="261" y="20" type="curve" smooth="yes"/>
      <point x="352" y="20"/>
      <point x="439" y="103"/>
      <point x="439" y="230" type="curve" smooth="yes"/>
      <point x="439" y="357"/>
      <point x="352" y="440"/>
      <point x="261" y="440" type="curve" smooth="yes"/>
      <point x="156" y="440"/>
      <point x="73" y="360"/>
    </contour>
  </outline>
</glyph>
<glyph name="Scedilla" format="2">
  <advance width="506"/>
  <unicode hex="015E"/>
  <outline>
    <contour>
      <point x="69" y="206" type="line"/>
      <point x="101" y="116"/>
      <point x="156" y="23"/>
      <point x="267" y="23" type="curve" smooth="yes"/>
      <point x="382" y="23"/>
      <point x="427" y="87"/>
      <point x="427" y="177" type="curve" smooth="yes"/>
      <point x="427" y="276"/>
      <point x="339" y="325"/>
      <point x="262" y="353" type="curve" smooth="yes"/>
      <point x="185" y="381"/>
      <point x="78" y="430"/>
      <point x="78" y="544" type="curve" smooth="yes"/>
      <point x="78" y="643"/>
      <point x="157" y="709"/>
      <point x="260" y="709" type="curve" smooth="yes"/>
      <point x="373" y="709"/>
      <point x="432" y="627"/>
      <point x="456" y="553" type="curve"/>
      <point x="428" y="538" type="line"/>
      <point x="406" y="602"/>
      <point x="355" y="677"/>
      <point x="258" y="677" type="curve" smooth="yes"/>
      <point x="174" y="677"/>
      <point x="113" y="622"/>
      <point x="113" y="544" type="curve" smooth="yes"/>
      <point x="113" y="454"/>
      <point x="204" y="407"/>
      <point x="289" y="376" type="curve" smooth="yes"/>
      <point x="369" y="347"/>
      <point x="461" y="294"/>
      <point x="461" y="180" type="curve" smooth="yes"/>
      <point x="461" y="75"/>
      <point x="402" y="-9"/>
      <point x="266" y="-9" type="curve" smooth="yes"/>
      <point x="144" y="-9"/>
      <point x="74" y="88"/>
      <point x="40" y="190" type="curve"/>
    </contour>
    <contour>
      <point x="264" y="17" type="line"/>
      <point x="291" y="17" type="line"/>
      <point x="233" y="-70" type="line"/>
      <point x="252" y="-59"/>
      <point x="260" y="-53"/>
      <point x="284" y="-53" type="curve" smooth="yes"/>
      <point x="317" y="-53"/>
      <point x="357" y="-78"/>
      <point x="357" y="-127" type="curve" smooth="yes"/>
      <point x="357" y="-188"/>
      <point x="305" y="-221"/>
      <point x="250" y="-221" type="curve" smooth="yes"/>
      <point x="213" y="-221"/>
      <point x="189" y="-211"/>
      <point x="161" y="-183" type="curve"/>
      <point x="176" y="-167" type="line"/>
      <point x="201" y="-189"/>
      <point x="219" y="-198"/>
      <point x="250" y="-198" type="curve" smooth="yes"/>
      <point x="293" y="-198"/>
      <point x="333" y="-173"/>
      <point x="333" y="-127" type="curve" smooth="yes"/>
      <point x="333" y="-89"/>
      <point x="304" y="-71"/>
      <point x="274" y="-71" type="curve" smooth="yes"/>
      <point x="250" y="-71"/>
      <point x="222" y="-80"/>
      <point x="200" y="-95" type="curve"/>
    </contour>
  </outline>
</glyph>
<glyph name="Uring" format="2">
  <advance width="591"/>
  <unicode hex="016E"/>
  <outline>
    <contour>
      <point x="82" y="700" type="line"/>
      <point x="115" y="700" type="line"/>
      <point x="115" y="223" type="line" smooth="yes"/>
      <point x="115" y="99"/>
      <point x="182" y="22"/>
      <point x="296" y="22" type="curve" smooth="yes"/>
      <point x="410" y="22"/>
      <point x="476" y="99"/>
      <point x="476" y="223" type="curve" smooth="yes"/>
      <point x="476" y="700" type="line"/>
      <point x="509" y="700" type="line"/>
      <point x="509" y="223" type="line" smooth="yes"/>
      <point x="509" y="84"/>
      <point x="434" y="-10"/>
      <point x="296" y="-10" type="curve" smooth="yes"/>
      <point x="158" y="-10"/>
      <point x="82" y="84"/>
      <point x="82" y="223" type="curve" smooth="yes"/>
    </contour>
    <contour>
      <point x="194" y="869" type="curve" smooth="yes"/>
      <point x="194" y="929"/>
      <point x="244" y="969"/>
      <point x="296" y="969" type="curve" smooth="yes"/>
      <point x="348" y="969"/>
      <point x="398" y="929"/>
      <point x="398" y="869" type="curve" smooth="yes"/>
      <point x="398" y="809"/>
      <point x="348" y="769"/>
      <point x="296" y="769" type="curve" smooth="yes"/>
      <point x="244" y="769"/>
      <point x="194" y="809"/>
    </contour>
    <contour>
      <point x="216" y="869" type="curve" smooth="yes"/>
      <point x="216" y="822"/>
      <point x="255" y="790"/>
      <point x="296" y="790" type="curve" smooth="yes"/>
      <point x="337" y="790"/>
      <point x="375" y="822"/>
      <point x="375" y="869" type="curve" smooth="yes"/>
      <point x="375" y="916"/>
      <point x="337" y="948"/>
      <point x="296" y="948" type="curve" smooth="yes"/>
      <point x="255" y="948"/>
      <point x="216" y="916"/>
    </contour>
  </outline>
</glyph>
<glyph name="Zacute" format="2">
  <advance width="538"/>
  <unicode hex="0179"/>
  <outline>
    <contour>
      <point x="38" y="668" type="line"/>
      <point x="38" y="700" type="line"/>
      <point x="522" y="700" type="line"/>
      <point x="76" y="32" type="line"/>
      <point x="508" y="32" type="line"/>
      <point x="508" y="0" type="line"/>
      <point x="18" y="0" type="line"/>
      <point x="464" y="668" type="line"/>
    </contour>
    <contour>
      <point x="430" y="924" type="line"/>
      <point x="254" y="769" type="line"/>
      <point x="238" y="781" type="line"/>
      <point x="402" y="941" type="line"/>
    </contour>
  </outline>
</glyph>
<glyph name="zdotaccent" format="2">
  <advance width="439"/>
  <unicode hex="017C"/>
  <outline>
    <contour>
      <point x="355" y="430" type="line"/>
      <point x="42" y="430" type="line"/>
      <point x="42" y="460" type="line"/>
      <point x="414" y="460" type="line"/>
      <point x="77" y="30" type="line"/>
      <point x="414" y="30" type="line"/>
      <point x="414" y="0" type="line"/>
      <point x="18" y="0" type="line"/>
    </contour>
    <contour>
      <point x="203" y="584" type="curve" smooth="yes"/>
      <point x="203" y="598"/>
      <point x="215" y="608"/>
      <point x="228" y="608" type="curve" smooth="yes"/>
      <point x="241" y="608"/>
      <point x="252" y="598"/>
      <point x="252" y="584" type="curve" smooth="yes"/>
      <point x="252" y="570"/>
      <point x="241" y="560"/>
      <point x="228" y="560" type="curve" smooth="yes"/>
      <point x="215" y="560"/>
      <point x="203" y="570"/>
    </contour>
  </outline>
</glyph>
<glyph name="uni021B" format="2">
  <advance width="205"/>
  <unicode hex="021B"/>
  <outline>
    <contour>
      <point x="12" y="460" type="line"/>
      <point x="193" y="460" type="line"/>
      <point x="193" y="430" type="line"/>
      <point x="12" y="430" type="line"/>
    </contour>
    <contour>
      <point x="87" y="620" type="line"/>
      <point x="118" y="620" type="line"/>
      <point x="118" y="0" type="line"/>
      <point x="87" y="0" type="line"/>
    </contour>
    <contour>
      <point x="136.5" y="-60" type="line"/>
      <point x="168.5" y="-73" type="line"/>
      <point x="58.5" y="-323" type="line"/>
      <point x="36.5" y="-315" type="line"/>
    </contour>
  </outline>
</glyph>
<glyph name="caron" format="2">
  <advance width="480"/>
  <unicode hex="02C7"/>
  <outline>
    <contour>
      <point x="240" y="604" type="line"/>
      <point x="379" y="728" type="line"/>
      <point x="400" y="710" type="line"/>
      <point x="240" y="570" type="line"/>
      <point x="80" y="710" type="line"/>
      <point x="101" y="728" type="line"/>
    </contour>
  </outline>
</glyph>
<glyph name="uni0400" format="2">
  <advance width="550"/>
  <unicode hex="0400"/>
  <outline>
    <contour>
      <point x="102" y="0" type="line"/>
      <point x="102" y="31" type="line"/>
      <point x="445" y="31" type="line"/>
      <point x="445" y="0" type="line"/>
    </contour>
    <contour>
      <point x="102" y="669" type="line"/>
      <point x="102" y="700" type="line"/>
      <point x="445" y="700" type="line"/>
      <point x="445" y="669" type="line"/>
    </contour>
    <contour>
      <point x="102" y="371" type="line"/>
      <point x="102" y="402" type="line"/>
      <point x="425" y="402" type="line"/>
      <point x="425" y="371" type="line"/>
    </contour>
    <contour>
      <point x="87" y="700" type="line"/>
      <point x="120" y="700" type="line"/>
      <point x="120" y="0" type="line"/>
      <point x="87" y="0" type="line"/>
    </contour>
    <contour>
      <point x="118" y="942" type="line"/>
      <point x="146" y="960" type="line"/>
      <point x="310" y="800" type="line"/>
      <point x="293" y="788" type="line"/>
    </contour>
  </outline>
</glyph>
<glyph name="uni0401" format="2">
  <advance width="550"/>
  <unicode hex="0401"/>
  <outline>
    <contour>
      <point x="102" y="0" type="line"/>
      <point x="102" y="31" type="line"/>
      <point x="445" y="31" type="line"/>
      <point x="445" y="0" type="line"/>
    </contour>
    <contour>
      <point x="102" y="669" type="line"/>
      <point x="102" y="700" type="line"/>
      <point x="445" y="700" type="line"/>
      <point x="445" y="669" type="line"/>
    </contour>
    <contour>
      <point x="102" y="371" type="line"/>
      <point x="102" y="402" type="line"/>
      <point x="425" y="402" type="line"/>
      <point x="425" y="371" type="line"/>
    </contour>
    <contour>
      <point x="87" y="700" type="line"/>
      <point x="120" y="700" type="line"/>
      <point x="120" y="0" type="line"/>
      <point x="87" y="0" type="line"/>
    </contour>
    <contour>
      <point x="339" y="845" type="curve" smooth="yes"/>
      <point x="339" y="859"/>
      <point x="350" y="870"/>
      <point x="363" y="870" type="curve" smooth="yes"/>
      <point x="376" y="870"/>
      <point x="387" y="859"/>
      <point x="387" y="845" type="curve" smooth="yes"/>
      <point x="387" y="831"/>
      <point x="376" y="821"/>
      <point x="363" y="821" type="curve" smooth="yes"/>
      <point x="350" y="821"/>
      <point x="339" y="831"/>
    </contour>
    <contour>
      <point x="139" y="845" type="curve" smooth="yes"/>
      <point x="139" y="859"/>
      <point x="150" y="870"/>
      <point x="163" y="870" type="curve" smooth="yes"/>
      <point x="176" y="870"/>
      <point x="187" y="859"/>
      <point x="187" y="845" type="curve" smooth="yes"/>
      <point x="187" y="831"/>
      <point x="176" y="821"/>
      <point x="163" y="821" type="curve" smooth="yes"/>
      <point x="150" y="821"/>
      <point x="139" y="831"/>
    </contour>
  </outline>
</glyph>
<glyph name="uni040C" format="2">
  <advance width="565"/>
  <unicode hex="040C"/>
  <outline>
    <contour>
      <point x="84" y="700" type="line"/>
      <point x="117" y="700" type="line"/>
      <point x="117" y="0" type="line"/>
      <point x="84" y="0" type="line"/>
    </contour>
    <contour>
      <point x="418" y="700" type="line"/>
      <point x="460" y="700" type="line"/>
      <point x="149" y="372" type="line"/>
      <point x="475" y="0" type="line"/>
      <point x="432" y="0" type="line"/>
      <point x="108" y="371" type="line"/>
    </contour>
    <contour>
      <point x="460" y="942" type="line"/>
      <point x="284" y="788" type="line"/>
      <point x="268" y="800" type="line"/>
      <point x="432" y="960" type="line"/>
    </contour>
  </outline>
</glyph>
<glyph name="uni0416" format="2">
  <advance width="716"/>
  <unicode hex="0416"/>
  <outline>
    <contour>
      <point x="62" y="700" type="line"/>
      <point x="353" y="370" type="line"/>
      <point x="47" y="0" type="line"/>
      <point x="5" y="0" type="line"/>
      <point x="313" y="371" type="line"/>
      <point x="20" y="700" type="line"/>
    </contour>
    <contour>
      <point x="347" y="700" type="line"/>
      <point x="380" y="700" type="line"/>
      <point x="380" y="0" type="line"/>
      <point x="347" y="0" type="line"/>
    </contour>
    <contour>
      <point x="654" y="700" type="line"/>
      <point x="696" y="700" type="line"/>
      <point x="410" y="371" type="line"/>
      <point x="712" y="0" type="line"/>
      <point x="670" y="0" type="line"/>
      <point x="373" y="370" type="line"/>
    </contour>
  </outline>
</glyph>
<glyph name="uni0419" format="2">
  <advance width="740"/>
  <unicode hex="0419"/>
  <outline>
    <contour>
      <point x="652" y="683" type="line"/>
      <point x="87" y="-35" type="line"/>
      <point x="88" y="17" type="line"/>
      <point x="653" y="735" type="line"/>
    </contour>
    <contour>
      <point x="120" y="700" type="line"/>
      <point x="120" y="13" type="line"/>
      <point x="87" y="-35" type="line"/>
      <point x="87" y="700" type="line"/>
    </contour>
    <contour>
      <point x="653" y="735" type="line"/>
      <point x="653" y="0" type="line"/>
      <point x="620" y="0" type="line"/>
      <point x="620" y="688" type="line"/>
    </contour>
    <contour>
      <point x="228" y="902" type="curve"/>
      <point x="256" y="902" type="line"/>
      <point x="256" y="848"/>
      <point x="301" y="788"/>
      <point x="386" y="788" type="curve" smooth="yes"/>
      <point x="471" y="788"/>
      <point x="515" y="848"/>
      <point x="515" y="902" type="curve"/>
      <point x="544" y="902" type="line"/>
      <point x="544" y="833"/>
      <point x="491" y="762"/>
      <point x="386" y="762" type="curve" smooth="yes"/>
      <point x="281" y="762"/>
      <point x="228" y="833"/>
    </contour>
  </outline>
</glyph>
<glyph name="uni0426" format="2">
  <advance width="707"/>
  <unicode hex="0426"/>
  <outline>
    <contour>
      <point x="112" y="31" type="line"/>
      <point x="550" y="31" type="line"/>
      <point x="550" y="700" type="line"/>
      <point x="582" y="700" type="line"/>
      <point x="582" y="31" type="line"/>
      <point x="668" y="31" type="line"/>
      <point x="668" y="-110" type="line"/>
      <point x="638" y="-110" type="line"/>
      <point x="638" y="0" type="line"/>
      <point x="80" y="0" type="line"/>
      <point x="80" y="700" type="line"/>
      <point x="112" y="700" type="line"/>
    </contour>
  </outline>
</glyph>
<glyph name="uni0431" format="2">
  <advance width="546"/>
  <unicode hex="0431"/>
  <outline>
    <contour>
      <point x="273" y="440" type="curve"/>
      <point x="273" y="470" type="line"/>
      <point x="408" y="470"/>
      <point x="511" y="369"/>
      <point x="511" y="230" type="curve" smooth="yes"/>
      <point x="511" y="91"/>
      <point x="408" y="-10"/>
      <point x="273" y="-10" type="curve" smooth="yes"/>
      <point x="138" y="-10"/>
      <point x="35" y="91"/>
      <point x="35" y="290" type="curve"/>
      <point x="72" y="230" type="line"/>
      <point x="72" y="106"/>
      <point x="162" y="20"/>
      <point x="273" y="20" type="curve" smooth="yes"/>
      <point x="384" y="20"/>
      <point x="480" y="106"/>
      <point x="480" y="230" type="curve" smooth="yes"/>
      <point x="480" y="354"/>
      <point x="390" y="440"/>
    </contour>
    <contour>
      <point x="54" y="230" type="line"/>
      <point x="54" y="379"/>
      <point x="162" y="470"/>
      <point x="273" y="470" type="curve"/>
      <point x="273" y="440" type="line"/>
      <point x="182" y="440"/>
      <point x="72" y="364"/>
      <point x="72" y="230" type="curve"/>
    </contour>
    <contour>
      <point x="35" y="290" type="line"/>
      <point x="35" y="477"/>
      <point x="82" y="601"/>
      <point x="243" y="656" type="curve" smooth="yes"/>
      <point x="334" y="687"/>
      <point x="374" y="732"/>
      <point x="384" y="780" type="curve"/>
      <point x="415" y="780" type="line"/>
      <point x="406" y="716"/>
      <point x="351" y="664"/>
      <point x="252" y="630" type="curve" smooth="yes"/>
      <point x="109" y="580"/>
      <point x="63" y="471"/>
      <point x="63" y="298" type="curve" smooth="yes"/>
      <point x="63" y="232" type="line"/>
    </contour>
  </outline>
</glyph>
<glyph name="uni0434" format="2">
  <advance width="655"/>
  <unicode hex="0434"/>
  <outline>
    <contour>
      <point x="325" y="426" type="line"/>
      <point x="135" y="16" type="line"/>
      <point x="100" y="16" type="line"/>
      <point x="325" y="495" type="line"/>
      <point x="550" y="16" type="line"/>
      <point x="515" y="16" type="line"/>
    </contour>
    <contour>
      <point x="579" y="0" type="line"/>
      <point x="72" y="0" type="line"/>
      <point x="72" y="-90" type="line"/>
      <point x="40" y="-90" type="line"/>
      <point x="40" y="30" type="line"/>
      <point x="610" y="30" type="line"/>
      <point x="610" y="-90" type="line"/>
      <point x="579" y="-90" type="line"/>
    </contour>
  </outline>
</glyph>
<glyph name="uni0437" format="2">
  <advance width="476"/>
  <unicode hex="0437"/>
  <outline>
    <contour>
      <point x="243" y="240" type="curve"/>
      <point x="243" y="259" type="line"/>
      <point x="303" y="259"/>
      <point x="379" y="272"/>
      <point x="379" y="336" type="curve" smooth="yes"/>
      <point x="379" y="388"/>
      <point x="328" y="441"/>
      <point x="249" y="441" type="curve" smooth="yes"/>
      <point x="177" y="441"/>
      <point x="121" y="387"/>
      <point x="121" y="326" type="curve"/>
      <point x="90" y="326" type="line"/>
      <point x="90" y="405"/>
      <point x="162" y="470"/>
      <point x="247" y="470" type="curve" smooth="yes"/>
      <point x="347" y="470"/>
      <point x="411" y="403"/>
      <point x="411" y="334" type="curve" smooth="yes"/>
      <point x="411" y="265"/>
      <point x="348" y="240"/>
    </contour>
    <contour>
      <point x="248" y="-10" type="curve" smooth="yes"/>
      <point x="143" y="-10"/>
      <point x="70" y="56"/>
      <point x="60" y="145" type="curve"/>
      <point x="91" y="145" type="line"/>
      <point x="102" y="74"/>
      <point x="157" y="18"/>
      <point x="248" y="18" type="curve" smooth="yes"/>
      <point x="322" y="18"/>
      <point x="400" y="61"/>
      <point x="400" y="135" type="curve" smooth="yes"/>
      <point x="400" y="209"/>
      <point x="313" y="231"/>
      <point x="243" y="231" type="curve"/>
      <point x="243" y="250" type="line"/>
      <point x="348" y="250"/>
      <point x="431" y="214"/>
      <point x="431" y="135" type="curve" smooth="yes"/>
      <point x="431" y="46"/>
      <point x="343" y="-10"/>
    </contour>
  </outline>
</glyph>
<glyph name="uni043A" format="2">
  <advance width="440"/>
  <unicode hex="043A"/>
  <outline>
    <contour>
      <point x="77" y="460" type="line"/>
      <point x="108" y="460" type="line"/>
      <point x="108" y="0" type="line"/>
      <point x="77" y="0" type="line"/>
    </contour>
    <contour>
      <point x="326" y="460" type="line"/>
      <point x="367" y="460" type="line"/>
      <point x="137" y="270" type="line"/>
      <point x="385" y="0" type="line"/>
      <point x="346" y="0" type="line"/>
      <point x="98" y="270" type="line"/>
    </contour>
  </outline>
</glyph>
<glyph name="uni0442" format="2">
  <advance width="280"/>
  <unicode hex="0442"/>
  <outline>
    <contour>
      <point x="5" y="460" type="line"/>
      <point x="275" y="460" type="line"/>
      <point x="275" y="430" type="line"/>
      <point x="5" y="430" type="line"/>
    </contour>
    <contour>
      <point x="124" y="450" type="line"/>
      <point x="156" y="450" type="line"/>
      <point x="156" y="0" type="line"/>
      <point x="124" y="0" type="line"/>
    </contour>
  </outline>
</glyph>
<glyph name="uni0447" format="2">
  <advance width="436"/>
  <unicode hex="0447"/>
  <outline>
    <contour>
      <point x="230" y="140" type="line"/>
      <point x="230" y="170" type="line"/>
      <point x="352" y="170" type="line"/>
      <point x="352" y="140" type="line"/>
    </contour>
    <contour>
      <point x="330" y="460" type="line"/>
      <point x="361" y="460" type="line"/>
      <point x="361" y="0" type="line"/>
      <point x="330" y="0" type="line"/>
    </contour>
    <contour>
      <point x="81" y="460" type="line"/>
      <point x="81" y="328" type="line" smooth="yes"/>
      <point x="81" y="210"/>
      <point x="119" y="170"/>
      <point x="230" y="170" type="curve"/>
      <point x="230" y="140" type="line"/>
      <point x="91" y="140"/>
      <point x="50" y="193"/>
      <point x="50" y="328" type="curve" smooth="yes"/>
      <point x="50" y="460" type="line"/>
    </contour>
  </outline>
</glyph>
<glyph name="uni045D" format="2">
  <advance width="496"/>
  <unicode hex="045D"/>
  <outline>
    <contour>
      <point x="411" y="441" type="line"/>
      <point x="80" y="-35" type="line"/>
      <point x="85" y="19" type="line"/>
      <point x="416" y="495" type="line"/>
    </contour>
    <contour>
      <point x="111" y="460" type="line"/>
      <point x="111" y="12" type="line"/>
      <point x="80" y="-35" type="line"/>
      <point x="80" y="460" type="line"/>
    </contour>
    <contour>
      <point x="416" y="495" type="line"/>
      <point x="416" y="0" type="line"/>
      <point x="385" y="0" type="line"/>
      <point x="385" y="448" type="line"/>
    </contour>
    <contour>
      <point x="90" y="710" type="line"/>
      <point x="118" y="728" type="line"/>
      <point x="282" y="568" type="line"/>
      <point x="265" y="555" type="line"/>
    </contour>
  </outline>
</glyph>
<glyph name="uni1E9E" format="2">
  <advance width="681"/>
  <unicode hex="1E9E"/>
  <outline>
    <contour>
      <point x="408" y="-10" type="curve" smooth="yes"/>
      <point x="287" y="-10"/>
      <point x="198" y="76"/>
      <point x="198" y="185" type="curve"/>
      <point x="231" y="185" type="line"/>
      <point x="231" y="92"/>
      <point x="307" y="21"/>
      <point x="408" y="21" type="curve" smooth="yes"/>
      <point x="509" y="21"/>
      <point x="578" y="93"/>
      <point x="578" y="188" type="curve" smooth="yes"/>
      <point x="578" y="294"/>
      <point x="486" y="348"/>
      <point x="370" y="348" type="curve"/>
      <point x="370" y="370" type="line"/>
      <point x="505" y="370"/>
      <point x="612" y="310"/>
      <point x="612" y="185" type="curve" smooth="yes"/>
      <point x="612" y="73"/>
      <point x="526" y="-10"/>
    </contour>
    <contour>
      <point x="370" y="357" type="curve"/>
      <point x="370" y="379" type="line"/>
      <point x="486" y="379"/>
      <point x="558" y="440"/>
      <point x="558" y="530" type="curve" smooth="yes"/>
      <point x="558" y="624"/>
      <point x="470" y="680"/>
      <point x="366" y="680" type="curve" smooth="yes"/>
      <point x="211" y="680"/>
      <point x="112" y="581"/>
      <point x="112" y="407" type="curve" smooth="yes"/>
      <point x="112" y="0" type="line"/>
      <point x="80" y="0" type="line"/>
      <point x="80" y="407" type="line" smooth="yes"/>
      <point x="80" y="601"/>
      <point x="191" y="710"/>
      <point x="366" y="710" type="curve" smooth="yes"/>
      <point x="485" y="710"/>
      <point x="592" y="648"/>
      <point x="592" y="534" type="curve" smooth="yes"/>
      <point x="592" y="425"/>
      <point x="505" y="357"/>
    </contour>
  </outline>
</glyph>
<glyph name="quotedblleft" format="2">
  <advance width="412"/>
  <unicode hex="201C"/>
  <outline>
    <contour>
      <point x="114" y="470" type="line"/>
      <point x="77" y="470" type="line"/>
      <point x="174" y="700" type="line"/>
      <point x="197" y="700" type="line"/>
    </contour>
    <contour>
      <point x="272" y="470" type="line"/>
      <point x="235" y="470" type="line"/>
      <point x="332" y="700" type="line"/>
      <point x="355" y="700" type="line"/>
    </contour>
  </outline>
</glyph>
<glyph name="quotedblright" format="2">
  <advance width="412"/>
  <unicode hex="201D"/>
  <outline>
    <contour>
      <point x="140" y="700" type="line"/>
      <point x="177" y="700" type="line"/>
      <point x="80" y="470" type="line"/>
      <point x="57" y="470" type="line"/>
    </contour>
    <contour>
      <point x="298" y="700" type="line"/>
      <point x="335" y="700" type="line"/>
      <point x="238" y="470" type="line"/>
      <point x="215" y="470" type="line"/>
    </contour>
  </outline>
</glyph>
<glyph name="ellipsis" format="2">
  <advance width="838"/>
  <unicode hex="2026"/>
  <outline>
    <contour>
      <point x="112" y="13" type="curve" smooth="yes"/>
      <point x="112" y="27"/>
      <point x="124" y="37"/>
      <point x="137" y="37" type="curve" smooth="yes"/>
      <point x="150" y="37"/>
      <point x="161" y="27"/>
      <point x="161" y="13" type="curve" smooth="yes"/>
      <point x="161" y="-1"/>
      <point x="150" y="-12"/>
      <point x="137" y="-12" type="curve" smooth="yes"/>
      <point x="124" y="-12"/>
      <point x="112" y="-1"/>
    </contour>
    <contour>
      <point x="395" y="13" type="curve" smooth="yes"/>
      <point x="395" y="27"/>
      <point x="406" y="37"/>
      <point x="419" y="37" type="curve" smooth="yes"/>
      <point x="432" y="37"/>
      <point x="443" y="27"/>
      <point x="443" y="13" type="curve" smooth="yes"/>
      <point x="443" y="-1"/>
      <point x="432" y="-12"/>
      <point x="419" y="-12" type="curve" smooth="yes"/>
      <point x="406" y="-12"/>
      <point x="395" y="-1"/>
    </contour>
    <contour>
      <point x="678" y="13" type="curve" smooth="yes"/>
      <point x="678" y="27"/>
      <point x="689" y="37"/>
      <point x="702" y="37" type="curve" smooth="yes"/>
      <point x="715" y="37"/>
      <point x="726" y="27"/>
      <point x="726" y="13" type="curve" smooth="yes"/>
      <point x="726" y="-1"/>
      <point x="715" y="-12"/>
      <point x="702" y="-12" type="curve" smooth="yes"/>
      <point x="689" y="-12"/>
      <point x="678" y="-1"/>
    </contour>
  </outline>
</glyph>
<glyph name="uni2076" format="2">
  <advance width="336"/>
  <unicode hex="2076"/>
  <outline>
    <contour>
      <point x="58" y="412" type="curve" smooth="yes"/>
      <point x="58" y="341"/>
      <point x="104" y="290"/>
      <point x="173" y="290" type="curve" smooth="yes"/>
      <point x="242" y="290"/>
      <point x="289" y="341"/>
      <point x="289" y="412" type="curve" smooth="yes"/>
      <point x="289" y="478"/>
      <point x="238" y="528"/>
      <point x="178" y="528" type="curve" smooth="yes"/>
      <point x="103" y="528"/>
      <point x="58" y="474"/>
    </contour>
    <contour>
      <point x="207" y="698" type="line"/>
      <point x="232" y="698" type="line"/>
      <point x="90" y="501" type="line"/>
      <point x="89" y="502" type="line"/>
      <point x="111" y="530"/>
      <point x="144" y="544"/>
      <point x="184" y="544" type="curve" smooth="yes"/>
      <point x="252" y="544"/>
      <point x="308" y="485"/>
      <point x="308" y="412" type="curve" smooth="yes"/>
      <point x="308" y="330"/>
      <point x="254" y="272"/>
      <point x="173" y="272" type="curve" smooth="yes"/>
      <point x="92" y="272"/>
      <point x="39" y="330"/>
      <point x="39" y="412" type="curve" smooth="yes"/>
      <point x="39" y="446"/>
      <point x="55" y="482"/>
      <point x="71" y="504" type="curve" smooth="yes"/>
    </contour>
  </outline>
</glyph>
<glyph name="uni2082" format="2">
  <advance width="336"/>
  <unicode hex="2082"/>
  <outline>
    <contour>
      <point x="28" y="2" type="line"/>
      <point x="222" y="206" type="line" smooth="yes"/>
      <point x="251" y="236"/>
      <point x="275" y="267"/>
      <point x="275" y="312" type="curve" smooth="yes"/>
      <point x="275" y="356"/>
      <point x="248" y="410"/>
      <point x="178" y="410" type="curve" smooth="yes"/>
      <point x="111" y="410"/>
      <point x="68" y="357"/>
      <point x="68" y="278" type="curve"/>
      <point x="48" y="278" type="line"/>
      <point x="48" y="367"/>
      <point x="99" y="429"/>
      <point x="178" y="429" type="curve" smooth="yes"/>
      <point x="262" y="429"/>
      <point x="295" y="362"/>
      <point x="295" y="310" type="curve" smooth="yes"/>
      <point x="295" y="263"/>
      <point x="269" y="227"/>
      <point x="238" y="195" type="curve" smooth="yes"/>
      <point x="70" y="21" type="line"/>
      <point x="308" y="21" type="line"/>
      <point x="308" y="2" type="line"/>
    </contour>
  </outline>
</glyph>
<glyph name="uni2085" format="2">
  <advance width="345"/>
  <unicode hex="2085"/>
  <outline>
    <contour>
      <point x="304" y="136" type="curve" smooth="yes"/>
      <point x="304" y="41"/>
      <point x="243" y="-8"/>
      <point x="166" y="-8" type="curve" smooth="yes"/>
      <point x="97" y="-8"/>
      <point x="58" y="28"/>
      <point x="34" y="80" type="curve"/>
      <point x="50" y="91" type="line"/>
      <point x="71" y="43"/>
      <point x="108" y="11"/>
      <point x="166" y="11" type="curve" smooth="yes"/>
      <point x="234" y="11"/>
      <point x="284" y="55"/>
      <point x="284" y="136" type="curve" smooth="yes"/>
      <point x="284" y="204"/>
      <point x="237" y="252"/>
      <point x="177" y="252" type="curve" smooth="yes"/>
      <point x="129" y="252"/>
      <point x="94" y="232"/>
      <point x="59" y="194" type="curve"/>
      <point x="75" y="219" type="line"/>
      <point x="96" y="247"/>
      <point x="136" y="270"/>
      <point x="184" y="270" type="curve" smooth="yes"/>
      <point x="252" y="270"/>
      <point x="304" y="215"/>
    </contour>
    <contour>
      <point x="128" y="400" type="line"/>
      <point x="85" y="224" type="line"/>
      <point x="59" y="194" type="line"/>
      <point x="114" y="418" type="line"/>
      <point x="312" y="418" type="line"/>
      <point x="312" y="400" type="line"/>
    </contour>
  </outline>
</glyph>
<glyph name="uni2086" format="2">
  <advance width="336"/>
  <unicode hex="2086"/>
  <outline>
    <contour>
      <point x="57" y="132" type="curve" smooth="yes"/>
      <point x="57" y="61"/>
      <point x="104" y="10"/>
      <point x="173" y="10" type="curve" smooth="yes"/>
      <point x="242" y="10"/>
      <point x="289" y="61"/>
      <point x="289" y="132" type="curve" smooth="yes"/>
      <point x="289" y="198"/>
      <point x="238" y="248"/>
      <point x="178" y="248" type="curve" smooth="yes"/>
      <point x="103" y="248"/>
      <point x="57" y="194"/>
    </contour>
    <contour>
      <point x="206" y="418" type="line"/>
      <point x="232" y="418" type="line"/>
      <point x="90" y="221" type="line"/>
      <point x="89" y="222" type="line"/>
      <point x="111" y="250"/>
      <point x="144" y="264"/>
      <point x="184" y="264" type="curve" smooth="yes"/>
      <point x="252" y="264"/>
      <point x="308" y="205"/>
      <point x="308" y="132" type="curve" smooth="yes"/>
      <point x="308" y="50"/>
      <point x="254" y="-8"/>
      <point x="173" y="-8" type="curve" smooth="yes"/>
      <point x="92" y="-8"/>
      <point x="38" y="50"/>
      <point x="38" y="132" type="curve" smooth="yes"/>
      <point x="38" y="166"/>
      <point x="54" y="202"/>
      <point x="70" y="224" type="curve" smooth="yes"/>
    </contour>
  </outline>
</glyph>
<glyph name="uni2087" format="2">
  <advance width="352"/>
  <unicode hex="2087"/>
  <outline>
    <contour>
      <point x="34" y="401" type="line"/>
      <point x="34" y="420" type="line"/>
      <point x="319" y="420" type="line"/>
      <point x="103" y="0" type="line"/>
      <point x="83" y="0" type="line"/>
      <point x="289" y="401" type="line"/>
    </contour>
  </outline>
</glyph>
<glyph name="uni2089" format="2">
  <advance width="336"/>
  <unicode hex="2089"/>
  <outline>
    <contour>
      <point x="279" y="288" type="curve" smooth="yes"/>
      <point x="279" y="359"/>
      <point x="232" y="410"/>
      <point x="163" y="410" type="curve" smooth="yes"/>
      <point x="94" y="410"/>
      <point x="47" y="359"/>
      <point x="47" y="288" type="curve" smooth="yes"/>
      <point x="47" y="222"/>
      <point x="99" y="172"/>
      <point x="159" y="172" type="curve" smooth="yes"/>
      <point x="234" y="172"/>
      <point x="279" y="226"/>
    </contour>
    <contour>
      <point x="130" y="2" type="line"/>
      <point x="105" y="2" type="line"/>
      <point x="246" y="199" type="line"/>
      <point x="247" y="198" type="line"/>
      <point x="225" y="170"/>
      <point x="193" y="156"/>
      <point x="153" y="156" type="curve" smooth="yes"/>
      <point x="85" y="156"/>
      <point x="28" y="215"/>
      <point x="28" y="288" type="curve" smooth="yes"/>
      <point x="28" y="370"/>
      <point x="82" y="428"/>
      <point x="163" y="428" type="curve" smooth="yes"/>
      <point x="244" y="428"/>
      <point x="298" y="370"/>
      <point x="298" y="288" type="curve" smooth="yes"/>
      <point x="298" y="254"/>
      <point x="282" y="218"/>
      <point x="266" y="196" type="curve" smooth="yes"/>
    </contour>
  </outline>
</glyph>
<glyph name="twothirds" format="2">
  <advance width="882"/>
  <unicode hex="2154"/>
  <outline>
    <contour>
      <point x="732" y="700" type="line"/>
      <point x="760" y="700" type="line"/>
      <point x="203" y="0" type="line"/>
      <point x="175" y="0" type="line"/>
    </contour>
    <contour>
      <point x="32" y="282" type="line"/>
      <point x="226" y="486" type="line" smooth="yes"/>
      <point x="255" y="516"/>
      <point x="279" y="547"/>
      <point x="279" y="592" type="curve" smooth="yes"/>
      <point x="279" y="636"/>
      <point x="251" y="690"/>
      <point x="181" y="690" type="curve" smooth="yes"/>
      <point x="114" y="690"/>
      <point x="71" y="637"/>
      <point x="71" y="558" type="curve"/>
      <point x="52" y="558" type="line"/>
      <point x="52" y="647"/>
      <point x="102" y="709"/>
      <point x="181" y="709" type="curve" smooth="yes"/>
      <point x="265" y="709"/>
      <point x="299" y="642"/>
      <point x="299" y="590" type="curve" smooth="yes"/>
      <point x="299" y="543"/>
      <point x="272" y="507"/>
      <point x="241" y="475" type="curve" smooth="yes"/>
      <point x="74" y="301" type="line"/>
      <point x="311" y="301" type="line"/>
      <point x="311" y="282" type="line"/>
    </contour>
    <contour>
      <point x="705" y="214" type="curve"/>
      <point x="705" y="227" type="line"/>
      <point x="759" y="227"/>
      <point x="818" y="263"/>
      <point x="818" y="318" type="curve" smooth="yes"/>
      <point x="818" y="365"/>
      <point x="786" y="408"/>
      <point x="726" y="408" type="curve" smooth="yes"/>
      <point x="669" y="408"/>
      <point x="630" y="370"/>
      <point x="630" y="316" type="curve"/>
      <point x="612" y="316" type="line"/>
      <point x="612" y="381"/>
      <point x="657" y="426"/>
      <point x="726" y="426" type="curve" smooth="yes"/>
      <point x="798" y="426"/>
      <point x="838" y="373"/>
      <point x="838" y="318" type="curve" smooth="yes"/>
      <point x="838" y="255"/>
      <point x="773" y="214"/>
    </contour>
    <contour>
      <point x="723" y="-6" type="curve" smooth="yes"/>
      <point x="642" y="-6"/>
      <point x="594" y="46"/>
      <point x="594" y="111" type="curve"/>
      <point x="613" y="111" type="line"/>
      <point x="613" y="54"/>
      <point x="654" y="13"/>
      <point x="723" y="13" type="curve" smooth="yes"/>
      <point x="788" y="13"/>
      <point x="830" y="53"/>
      <point x="830" y="109" type="curve" smooth="yes"/>
      <point x="830" y="177"/>
      <point x="759" y="210"/>
      <point x="705" y="210" type="curve"/>
      <point x="705" y="223" type="line"/>
      <point x="773" y="223"/>
      <point x="850" y="186"/>
      <point x="850" y="107" type="curve" smooth="yes"/>
      <point x="850" y="40"/>
      <point x="798" y="-6"/>
    </contour>
  </outline>
</glyph>
<glyph name="seveneighths" format="2">
  <advance width="772"/>
  <unicode hex="215E"/>
  <outline>
    <contour>
      <point x="617" y="700" type="line"/>
      <point x="645" y="700" type="line"/>
      <point x="88" y="0" type="line"/>
      <point x="60" y="0" type="line"/>
    </contour>
    <contour>
      <point x="34" y="681" type="line"/>
      <point x="34" y="700" type="line"/>
      <point x="319" y="700" type="line"/>
      <point x="103" y="280" type="line"/>
      <point x="83" y="280" type="line"/>
      <point x="289" y="681" type="line"/>
    </contour>
    <contour>
      <point x="496" y="323" type="curve" smooth="yes"/>
      <point x="496" y="378"/>
      <point x="542" y="426"/>
      <point x="604" y="426" type="curve" smooth="yes"/>
      <point x="666" y="426"/>
      <point x="712" y="378"/>
      <point x="712" y="323" type="curve" smooth="yes"/>
      <point x="712" y="262"/>
      <point x="660" y="219"/>
      <point x="604" y="219" type="curve" smooth="yes"/>
      <point x="548" y="219"/>
      <point x="496" y="262"/>
    </contour>
    <contour>
      <point x="515" y="321" type="curve" smooth="yes"/>
      <point x="515" y="268"/>
      <point x="564" y="231"/>
      <point x="604" y="231" type="curve" smooth="yes"/>
      <point x="644" y="231"/>
      <point x="693" y="268"/>
      <point x="693" y="321" type="curve" smooth="yes"/>
      <point x="693" y="369"/>
      <point x="656" y="408"/>
      <point x="604" y="408" type="curve" smooth="yes"/>
      <point x="552" y="408"/>
      <point x="515" y="369"/>
    </contour>
    <contour>
      <point x="484" y="112" type="curve" smooth="yes"/>
      <point x="484" y="181"/>
      <point x="541" y="226"/>
      <point x="604" y="226" type="curve" smooth="yes"/>
      <point x="667" y="226"/>
      <point x="724" y="181"/>
      <point x="724" y="112" type="curve" smooth="yes"/>
      <point x="724" y="47"/>
      <point x="679" y="-6"/>
      <point x="604" y="-6" type="curve" smooth="yes"/>
      <point x="529" y="-6"/>
      <point x="484" y="47"/>
    </contour>
    <contour>
      <point x="502" y="114" type="curve" smooth="yes"/>
      <point x="502" y="54"/>
      <point x="543" y="12"/>
      <point x="604" y="12" type="curve" smooth="yes"/>
      <point x="665" y="12"/>
      <point x="706" y="54"/>
      <point x="706" y="114" type="curve" smooth="yes"/>
      <point x="706" y="173"/>
      <point x="654" y="214"/>
      <point x="604" y="214" type="curve" smooth="yes"/>
      <point x="554" y="214"/>
      <point x="502" y="173"/>
    </contour>
  </outline>
</glyph>
<glyph name="uniFF17" format="2">
  <advance width="559"/>
  <unicode hex="FF17"/>
  <outline>
    <contour>
      <point x="54" y="669" type="line"/>
      <point x="54" y="700" type="line"/>
      <point x="530" y="700" type="line"/>
      <point x="170" y="0" type="line"/>
      <point x="137" y="0" type="line"/>
      <point x="480" y="669" type="line"/>
    </contour>
  </outline>
</glyph>
<glyph name="uniFF19" format="2">
  <advance width="559"/>
  <unicode hex="FF19"/>
  <outline>
    <contour>
      <point x="472" y="477" type="curve" smooth="yes"/>
      <point x="472" y="594"/>
      <point x="394" y="680"/>
      <point x="280" y="680" type="curve" smooth="yes"/>
      <point x="166" y="680"/>
      <point x="87" y="594"/>
      <point x="87" y="477" type="curve" smooth="yes"/>
      <point x="87" y="367"/>
      <point x="172" y="283"/>
      <point x="272" y="283" type="curve" smooth="yes"/>
      <point x="397" y="283"/>
      <point x="472" y="374"/>
    </contour>
    <contour>
      <point x="224" y="0" type="line"/>
      <point x="183" y="0" type="line"/>
      <point x="418" y="328" type="line"/>
      <point x="420" y="327" type="line"/>
      <point x="382" y="281"/>
      <point x="328" y="257"/>
      <point x="262" y="257" type="curve" smooth="yes"/>
      <point x="148" y="257"/>
      <point x="56" y="355"/>
      <point x="56" y="477" type="curve" smooth="yes"/>
      <point x="56" y="614"/>
      <point x="145" y="710"/>
      <point x="280" y="710" type="curve" smooth="yes"/>
      <point x="415" y="710"/>
      <point x="504" y="614"/>
      <point x="504" y="477" type="curve" smooth="yes"/>
      <point x="504" y="420"/>
      <point x="478" y="359"/>
      <point x="451" y="322" type="curve" smooth="yes"/>
    </contour>
  </outline>
</glyph>
<glyph name="aacute.alt" format="2">
  <advance width="549"/>
  <outline>
    <contour>
      <point x="443" y="460" type="line"/>
      <point x="473" y="460" type="line"/>
      <point x="473" y="0" type="line"/>
      <point x="443" y="0" type="line"/>
    </contour>
    <contour>
      <point x="42" y="230" type="curve" smooth="yes"/>
      <point x="42" y="378"/>
      <point x="138" y="470"/>
      <point x="260" y="470" type="curve" smooth="yes"/>
      <point x="381" y="470"/>
      <point x="456" y="358"/>
      <point x="456" y="230" type="curve" smooth="yes"/>
      <point x="456" y="102"/>
      <point x="381" y="-10"/>
      <point x="260" y="-10" type="curve" smooth="yes"/>
      <point x="138" y="-10"/>
      <point x="42" y="82"/>
    </contour>
    <contour>
      <point x="73" y="230" type="curve" smooth="yes"/>
      <point x="73" y="100"/>
      <point x="158" y="20"/>
      <point x="265" y="20" type="curve" smooth="yes"/>
      <point x="362" y="20"/>
      <point x="442" y="117"/>
      <point x="442" y="230" type="curve" smooth="yes"/>
      <point x="442" y="343"/>
      <point x="362" y="440"/>
      <point x="265" y="440" type="curve" smooth="yes"/>
      <point x="158" y="440"/>
      <point x="73" y="360"/>
    </contour>
    <contour>
      <point x="366" y="692" type="line"/>
      <point x="190" y="537" type="line"/>
      <point x="174" y="550" type="line"/>
      <point x="338" y="710" type="line"/>
    </contour>
  </outline>
</glyph>
